# xmcd
#
# Track frame offsets:
#	150
#	16428
#	30141
#	47378
#	62690
#	84150
#	93606
#	111295
#	128298
#	140898
#	150977
#	169409
#	181750
#	200814
#	215587
#	229413
#	246374
#	259217
#	278272
#	291164
#
# Disc length: 4117 seconds
#
# Revision: 1
# Processed by: cddbd v1.5PL3 Copyright (c) Steve Scherf et al.
# Submitted via: audiograbber 1.81.02
#
DISCID=14101314
DTITLE=Les Daraiche - 30 ans de succès (Vol 2)
DYEAR=2002
DGENRE=Country
TTITLE0=Les cowboys du Québec (Julie)
TTITLE1=À ma mère (Paul)
TTITLE2=Le train qui siffle (Dani)
TTITLE3=De jour en jour (Katia)
TTITLE4=La voie de ton coeur (Julie)
TTITLE5=Showtime (Paul)
TTITLE6=Blue Roses (Dani)
TTITLE7=Dans mon journal (Katia)
TTITLE8=Je vous aime, je vous adore (Julie)
TTITLE9=La fête en Acadie (Paul)
TTITLE10=Le petit voilier (Dani)
TTITLE11=Ma raison de vivre (Katia)
TTITLE12=La poule à Collin (Julie)
TTITLE13=T'envoler (Paul)
TTITLE14=Mon amour, mon ami (Dani)
TTITLE15=Adèle (Katia)
TTITLE16=Tu n'as pas de coeur (Julie)
TTITLE17=Six-heures, moins quart (Paul)
TTITLE18=Tu es le soleil de mes nuits (Dani)
TTITLE19=Que la lune est belle ce soir (Famille)
EXTD=
EXTT0=
EXTT1=
EXTT2=
EXTT3=
EXTT4=
EXTT5=
EXTT6=
EXTT7=
EXTT8=
EXTT9=
EXTT10=
EXTT11=
EXTT12=
EXTT13=
EXTT14=
EXTT15=
EXTT16=
EXTT17=
EXTT18=
EXTT19=
PLAYORDER=
